# xmcd
#
# Track frame offsets:
#	150
#	12695
#	22972
#	34011
#	46882
#	59047
#	71437
#	83605
#	93869
#
# Disc length: 1371 seconds
#
# Revision: 1
# Processed by: cddbd v1.4PL0 Copyright (c) Steve Scherf et al.
# Submitted via: EasyCDDAExtractor 5.1.0
#
DISCID=6a055909
DTITLE=Winds Of Grass - Live At Roanoke Civic Center Theater
DYEAR=1998
DGENRE=Bluegrass
TTITLE0=I Die a Little More Each Day
TTITLE1=More Pretty Girls Than One
TTITLE2=Hot Corn Cold Corn
TTITLE3=Someday We'll Meet Again Sweetheart
TTITLE4=Orange Blossom Special
TTITLE5=Glory Bound
TTITLE6=Shuckin' the Corn
TTITLE7=Have a Little Talk With Jesus
TTITLE8=Rocky Top
EXTD=
EXTT0=
EXTT1=
EXTT2=
EXTT3=
EXTT4=
EXTT5=
EXTT6=
EXTT7=
EXTT8=
PLAYORDER=
